<?xml version="1.0" encoding="utf-8"?>
<!-- Generator: Adobe Illustrator 24.3.0, SVG Export Plug-In . SVG Version: 6.00 Build 0)  -->
<svg version="1.1" xmlns="http://www.w3.org/2000/svg" xmlns:xlink="http://www.w3.org/1999/xlink" x="0px" y="0px"
	 viewBox="0 0 173.59 173.59" style="enable-background:new 0 0 173.59 173.59;" xml:space="preserve">
<style type="text/css">
	.st0{fill:url(#SVGID_1_);}
	.st1{fill:none;stroke:#000000;stroke-width:5;}
	.st2{fill:#D6CFE7;}
	.st3{fill:#E2DDEE;}
	.st4{fill:#423354;}
	.st5{fill:#614778;}
	.st6{fill:#7B5C9B;}
	.st7{fill:#212637;}
	.st8{fill:#DADDE1;}
	.st9{fill:#F1F2F5;}
	.st10{fill:url(#SVGID_2_);}
	.st11{fill:url(#SVGID_3_);}
	.st12{fill:url(#SVGID_4_);}
	.st13{fill:url(#SVGID_5_);}
	.st14{fill:url(#SVGID_6_);}
	.st15{fill:url(#SVGID_7_);}
	.st16{fill:url(#SVGID_8_);}
	.st17{fill:url(#SVGID_9_);}
	.st18{fill:url(#SVGID_10_);}
	.st19{fill:url(#SVGID_11_);}
	.st20{fill:url(#SVGID_12_);}
	.st21{fill:#0B0B0B;}
</style>
<g id="Layer_1">
	<linearGradient id="SVGID_1_" gradientUnits="userSpaceOnUse" x1="-328.3289" y1="284.5115" x2="-157.0777" y2="284.5115">
		<stop  offset="0" style="stop-color:#C7B9B8"/>
		<stop  offset="0.1803" style="stop-color:#CDC0C0"/>
		<stop  offset="0.4174" style="stop-color:#DDD7D5"/>
		<stop  offset="0.5112" style="stop-color:#E7E5E2"/>
		<stop  offset="0.6302" style="stop-color:#C1BEBE"/>
		<stop  offset="0.8785" style="stop-color:#767175"/>
		<stop  offset="1" style="stop-color:#575257"/>
	</linearGradient>
	<rect x="-328.33" y="207.73" class="st0" width="171.25" height="153.57"/>
	<text transform="matrix(1 0 0 1 -912.038 209.5573)"><tspan x="0" y="0" style="font-family:'DINPro-Black'; font-size:38.9868px;">Joshua</tspan><tspan x="0" y="46.78" style="font-family:'DINPro-Black'; font-size:38.9868px;">Roper</tspan></text>
	<path class="st1" d="M-985.27,475.42c-10.84,0-17.76-2.61-25.33-10.18l15.01-14.88c2.87,2.87,5.22,4.7,10.31,4.7
		c7.05,0,12.14-3.92,12.14-12.79v-60.58h22.85v61.1C-950.28,464.84-967.77,475.42-985.27,475.42z"/>
	<path class="st1" d="M-912.2,436.25c7.31-3.65,15.14-11.62,15.14-24.28c0-15.27-11.1-29.9-31.72-29.9h-13.97v20.5h12.93
		c6.27,0,9.92,4.57,9.92,9.4c0,4.83-3.66,9.4-9.92,9.4h-12.93v18.97v0.09h7.7l16.45,34.6h26.5L-912.2,436.25z"/>
	<circle class="st1" cx="-951.35" cy="428.55" r="91.01"/>
	<ellipse class="st2" cx="-577.28" cy="537.68" rx="33.08" ry="20.54"/>
	<ellipse class="st3" cx="-646.16" cy="539.65" rx="33.08" ry="20.54"/>
	<ellipse class="st4" cx="-459.45" cy="537.68" rx="33.08" ry="20.54"/>
	<ellipse class="st5" cx="-493.59" cy="499.01" rx="33.08" ry="20.54"/>
	<ellipse class="st6" cx="-517.07" cy="537.68" rx="21.39" ry="15.56"/>
	<ellipse class="st7" cx="-466.01" cy="575.75" rx="21.39" ry="15.56"/>
	<ellipse class="st8" cx="-517.07" cy="573.79" rx="21.39" ry="15.56"/>
	<ellipse class="st9" cx="-575.37" cy="575.75" rx="21.39" ry="15.56"/>
	<circle cx="-791.01" cy="312.87" r="5.27"/>
	<linearGradient id="SVGID_2_" gradientUnits="userSpaceOnUse" x1="-728.8081" y1="204.4253" x2="-541.0778" y2="204.4253">
		<stop  offset="0" style="stop-color:#E5E2DF"/>
		<stop  offset="0" style="stop-color:#DED9D6"/>
		<stop  offset="0.0355" style="stop-color:#CDCCCA"/>
		<stop  offset="0.1037" style="stop-color:#A5A9A9"/>
		<stop  offset="0.1966" style="stop-color:#6D7678"/>
		<stop  offset="0.264" style="stop-color:#465053"/>
		<stop  offset="0.2898" style="stop-color:#545E62"/>
		<stop  offset="0.3895" style="stop-color:#899194"/>
		<stop  offset="0.4732" style="stop-color:#B6BABD"/>
		<stop  offset="0.5369" style="stop-color:#D4D5D6"/>
		<stop  offset="0.573" style="stop-color:#E0E0E0"/>
		<stop  offset="0.6313" style="stop-color:#D5D6D8"/>
		<stop  offset="0.7293" style="stop-color:#BBBEC2"/>
		<stop  offset="0.8545" style="stop-color:#92999F"/>
		<stop  offset="0.8764" style="stop-color:#8B9298"/>
		<stop  offset="1" style="stop-color:#D1D3D4"/>
		<stop  offset="1" style="stop-color:#A7A9AC"/>
	</linearGradient>
	<path class="st10" d="M-588.16,180.59v-0.07h-0.02C-588.17,180.54-588.17,180.57-588.16,180.59z M-619.47,160.06h2.92h61.34v-5
		c-16.53-26.48-45.93-44.14-79.38-44.14c-51.56,0-93.51,41.95-93.51,93.51c0,6.16,0.61,12.19,1.75,18.02
		c-1.48,0.93-2.47,2.57-2.47,4.45c0,2.91,2.36,5.27,5.27,5.27c2.91,0,5.27-2.36,5.27-5.27c0-2.11-1.25-3.92-3.05-4.77
		c-1.17-5.72-1.79-11.64-1.79-17.71c0-48.8,39.7-88.51,88.51-88.51c30.54,0,57.51,15.55,73.43,39.14h-55.39h-2.92h-13.55v25.5h15.43
		c4.87,0,7.42,3.47,7.42,6.9c0,3.43-2.55,6.9-7.42,6.9h-15.43v24.06h8.62l16.45,34.6h32.19l-20.88-40.28
		c5.11-3.15,14.31-10.83,14.31-25.28c0-1.1-0.06-2.18-0.16-3.26c1.39-0.95,2.3-2.54,2.3-4.35c0-2.91-2.36-5.27-5.27-5.27
		s-5.27,2.36-5.27,5.27c0,2.2,1.35,4.08,3.27,4.87c0.09,0.91,0.15,1.83,0.15,2.74c0,14.07-10.53,20.43-13.76,22.05l-2.27,1.13
		l19.38,37.38h-20.81l-16.45-34.6h-6.78v-14.06h10.43c8.07,0,12.42-6.13,12.42-11.9c0-5.77-4.35-11.9-12.42-11.9h-10.43v-15.5
		H-619.47z M-543.46,183.45c0.89-0.94,1.44-2.21,1.44-3.61c0-2.91-2.36-5.27-5.27-5.27s-5.27,2.36-5.27,5.27
		c0,2.59,1.87,4.73,4.33,5.18c1.4,6.25,2.16,12.74,2.16,19.4c0,48.8-39.7,88.51-88.51,88.51c-30.54,0-57.5-15.55-73.42-39.14h33
		v-0.01c17.91-0.2,36.99-11.21,36.99-35.13v-63.6h-27.85v63.08c0,6.83-3.24,10.29-9.64,10.29c-2.01,0-3.44-0.31-4.7-0.92
		c0.02-0.2,0.06-0.4,0.06-0.61c0-2.91-2.36-5.27-5.27-5.27c-2.91,0-5.27,2.36-5.27,5.27c0,2.91,2.36,5.27,5.27,5.27
		c0.84,0,1.61-0.21,2.32-0.56c1.95,1.1,4.31,1.81,7.59,1.81c9.17,0,14.64-5.72,14.64-15.29v-58.08h17.85v58.6
		c0,15-10.05,30.14-32.49,30.14h-35.64h-2.79c0,0-0.03,3.31-0.03,5.02c16.53,26.47,45.93,44.12,79.37,44.12
		c51.56,0,93.51-41.95,93.51-93.51C-541.08,197.21-541.9,190.19-543.46,183.45z"/>
	<linearGradient id="SVGID_3_" gradientUnits="userSpaceOnUse" x1="-7.6932" y1="391.1168" x2="-7.6772" y2="391.1168">
		<stop  offset="0" style="stop-color:#FFFFFF"/>
		<stop  offset="1" style="stop-color:#000000"/>
	</linearGradient>
	<path class="st11" d="M-7.68,391.15v-0.07h-0.02C-7.69,391.11-7.68,391.13-7.68,391.15z"/>
	<linearGradient id="SVGID_4_" gradientUnits="userSpaceOnUse" x1="-148.3235" y1="392.5258" x2="25.2763" y2="392.5258">
		<stop  offset="0" style="stop-color:#FFFFFF"/>
		<stop  offset="1" style="stop-color:#000000"/>
	</linearGradient>
	<path class="st12" d="M-38.99,370.62h2.92h61.34v-5c-16.53-26.48-45.93-44.14-79.38-44.14c-51.56,0-93.51,41.95-93.51,93.51
		c0,6.16,0.61,12.19,1.75,18.02c-1.48,0.93-2.47,2.57-2.47,4.45c0,2.91,2.36,5.27,5.27,5.27c2.91,0,5.27-2.36,5.27-5.27
		c0-2.11-1.25-3.92-3.05-4.77c-1.17-5.72-1.79-11.64-1.79-17.71c0-48.8,39.7-88.51,88.51-88.51c30.54,0,57.51,15.55,73.43,39.14
		h-55.39h-2.92h-13.55v25.5h15.43c4.87,0,7.42,3.47,7.42,6.9c0,3.43-2.55,6.9-7.42,6.9h-15.43v24.06h8.62l16.45,34.6H4.73
		l-20.88-40.28c5.11-3.15,14.31-10.83,14.31-25.28c0-1.1-0.06-2.18-0.16-3.26c1.39-0.95,2.3-2.54,2.3-4.35
		c0-2.91-2.36-5.27-5.27-5.27s-5.27,2.36-5.27,5.27c0,2.2,1.35,4.08,3.27,4.87c0.09,0.91,0.15,1.83,0.15,2.74
		c0,14.07-10.53,20.43-13.76,22.05l-2.27,1.13l19.38,37.38H-24.3l-16.45-34.6h-6.78v-14.06h10.43c8.07,0,12.42-6.13,12.42-11.9
		c0-5.77-4.35-11.9-12.42-11.9h-10.43v-15.5H-38.99z"/>
	<linearGradient id="SVGID_5_" gradientUnits="userSpaceOnUse" x1="-133.4735" y1="437.0563" x2="39.4068" y2="437.0563">
		<stop  offset="0" style="stop-color:#FFFFFF"/>
		<stop  offset="1" style="stop-color:#000000"/>
	</linearGradient>
	<path class="st13" d="M37.03,394.01c0.89-0.94,1.44-2.21,1.44-3.61c0-2.91-2.36-5.27-5.27-5.27s-5.27,2.36-5.27,5.27
		c0,2.59,1.87,4.73,4.33,5.18c1.4,6.25,2.16,12.74,2.16,19.4c0,48.8-39.7,88.51-88.51,88.51c-30.54,0-57.5-15.55-73.42-39.14h33
		v-0.01c17.91-0.2,36.99-11.21,36.99-35.13v-63.6h-27.85v63.08c0,6.83-3.24,10.29-9.64,10.29c-2.01,0-3.44-0.31-4.7-0.92
		c0.02-0.2,0.06-0.4,0.06-0.61c0-2.91-2.36-5.27-5.27-5.27c-2.91,0-5.27,2.36-5.27,5.27c0,2.91,2.36,5.27,5.27,5.27
		c0.84,0,1.61-0.21,2.32-0.56c1.95,1.1,4.31,1.81,7.59,1.81c9.17,0,14.64-5.72,14.64-15.29v-58.08h17.85v58.6
		c0,15-10.05,30.14-32.49,30.14h-35.64h-2.79c0,0-0.03,3.31-0.03,5.02c16.53,26.47,45.93,44.12,79.37,44.12
		c51.56,0,93.51-41.95,93.51-93.51C39.41,407.78,38.58,400.76,37.03,394.01z"/>
	<path d="M-366.52,269.14h-5.49c3.93,8.34,6.6,17.39,7.75,26.9h5.03C-360.31,286.57-362.81,277.53-366.52,269.14z"/>
	<linearGradient id="SVGID_6_" gradientUnits="userSpaceOnUse" x1="-704.3207" y1="409.1112" x2="-640.9437" y2="409.1112">
		<stop  offset="0" style="stop-color:#D6CFE7"/>
		<stop  offset="1" style="stop-color:#614778"/>
	</linearGradient>
	<path class="st14" d="M-656.84,401.06v-0.02h-0.01C-656.84,401.05-656.84,401.06-656.84,401.06z M-667.41,394.13h0.99h20.71v-1.69
		c-5.58-8.94-15.51-14.9-26.8-14.9c-17.41,0-31.57,14.16-31.57,31.57c0,2.08,0.2,4.11,0.59,6.08c-0.5,0.32-0.83,0.87-0.83,1.5
		c0,0.98,0.8,1.78,1.78,1.78s1.78-0.8,1.78-1.78c0-0.71-0.42-1.32-1.03-1.61c-0.39-1.93-0.6-3.93-0.6-5.98
		c0-16.48,13.4-29.88,29.88-29.88c10.31,0,19.42,5.25,24.79,13.21h-18.7h-0.99h-4.57v8.61h5.21c1.64,0,2.51,1.17,2.51,2.33
		c0,1.16-0.86,2.33-2.51,2.33h-5.21v8.12h2.91l5.55,11.68h10.87l-7.05-13.6c1.73-1.06,4.83-3.66,4.83-8.53
		c0-0.37-0.02-0.74-0.06-1.1c0.47-0.32,0.78-0.86,0.78-1.47c0-0.98-0.8-1.78-1.78-1.78s-1.78,0.8-1.78,1.78
		c0,0.74,0.46,1.38,1.1,1.65c0.03,0.31,0.05,0.62,0.05,0.92c0,4.75-3.56,6.9-4.65,7.44l-0.77,0.38l6.54,12.62h-7.03l-5.55-11.68
		h-2.29v-4.75h3.52c2.72,0,4.19-2.07,4.19-4.02c0-1.95-1.47-4.02-4.19-4.02h-3.52v-5.23H-667.41z M-641.75,402.03
		c0.3-0.32,0.49-0.75,0.49-1.22c0-0.98-0.8-1.78-1.78-1.78s-1.78,0.8-1.78,1.78c0,0.87,0.63,1.6,1.46,1.75
		c0.47,2.11,0.73,4.3,0.73,6.55c0,16.48-13.4,29.88-29.88,29.88c-10.31,0-19.41-5.25-24.79-13.21h11.14v0
		c6.05-0.07,12.49-3.78,12.49-11.86v-21.47h-9.4v21.29c0,2.31-1.1,3.47-3.25,3.47c-0.68,0-1.16-0.1-1.59-0.31
		c0.01-0.07,0.02-0.13,0.02-0.2c0-0.98-0.8-1.78-1.78-1.78c-0.98,0-1.78,0.8-1.78,1.78c0,0.98,0.8,1.78,1.78,1.78
		c0.28,0,0.55-0.07,0.78-0.19c0.66,0.37,1.46,0.61,2.56,0.61c3.09,0,4.94-1.93,4.94-5.16v-19.61h6.03v19.78
		c0,5.06-3.39,10.17-10.97,10.17h-12.03h-0.94c0,0-0.01,1.12-0.01,1.69c5.58,8.94,15.51,14.9,26.8,14.9
		c17.41,0,31.57-14.16,31.57-31.57C-640.94,406.68-641.22,404.31-641.75,402.03z"/>
	<linearGradient id="SVGID_7_" gradientUnits="userSpaceOnUse" x1="-645.3602" y1="407.5362" x2="-546.4882" y2="407.5362">
		<stop  offset="0" style="stop-color:#212637"/>
		<stop  offset="0.1433" style="stop-color:#36334D"/>
		<stop  offset="0.3264" style="stop-color:#4E4267"/>
		<stop  offset="0.5071" style="stop-color:#614D7C"/>
		<stop  offset="0.6822" style="stop-color:#6F558C"/>
		<stop  offset="0.8493" style="stop-color:#775996"/>
		<stop  offset="0.9997" style="stop-color:#7B5C9B"/>
	</linearGradient>
	<path class="st15" d="M-577.76,399.49v-0.02h-0.01C-577.76,399.47-577.76,399.48-577.76,399.49z M-588.33,392.56h0.99h20.71v-1.69
		c-5.58-8.94-15.51-14.9-26.8-14.9c-17.41,0-31.57,14.16-31.57,31.57c0,2.08,0.2,4.11,0.59,6.08c-0.5,0.32-0.83,0.87-0.83,1.5
		c0,0.98,0.8,1.78,1.78,1.78c0.98,0,1.78-0.8,1.78-1.78c0-0.71-0.42-1.32-1.03-1.61c-0.39-1.93-0.6-3.93-0.6-5.98
		c0-16.48,13.4-29.88,29.88-29.88c10.31,0,19.42,5.25,24.79,13.21h-18.7h-0.99h-4.57v8.61h5.21c1.64,0,2.51,1.17,2.51,2.33
		c0,1.16-0.86,2.33-2.51,2.33h-5.21v8.12h2.91l5.55,11.68h10.87l-7.05-13.6c1.73-1.06,4.83-3.66,4.83-8.53
		c0-0.37-0.02-0.74-0.06-1.1c0.47-0.32,0.78-0.86,0.78-1.47c0-0.98-0.8-1.78-1.78-1.78s-1.78,0.8-1.78,1.78
		c0,0.74,0.46,1.38,1.1,1.65c0.03,0.31,0.05,0.62,0.05,0.92c0,4.75-3.56,6.9-4.65,7.44l-0.77,0.38l6.54,12.62h-7.03l-5.55-11.68
		h-2.29v-4.75h3.52c2.72,0,4.19-2.07,4.19-4.02c0-1.95-1.47-4.02-4.19-4.02h-3.52v-5.23H-588.33z M-562.66,400.45
		c0.3-0.32,0.49-0.75,0.49-1.22c0-0.98-0.8-1.78-1.78-1.78c-0.98,0-1.78,0.8-1.78,1.78c0,0.87,0.63,1.6,1.46,1.75
		c0.47,2.11,0.73,4.3,0.73,6.55c0,16.48-13.4,29.88-29.88,29.88c-10.31,0-19.41-5.25-24.79-13.21h11.14v0
		c6.05-0.07,12.49-3.78,12.49-11.86v-21.47h-9.4v21.29c0,2.31-1.1,3.47-3.25,3.47c-0.68,0-1.16-0.1-1.59-0.31
		c0.01-0.07,0.02-0.13,0.02-0.2c0-0.98-0.8-1.78-1.78-1.78c-0.98,0-1.78,0.8-1.78,1.78c0,0.98,0.8,1.78,1.78,1.78
		c0.28,0,0.55-0.07,0.78-0.19c0.66,0.37,1.46,0.61,2.56,0.61c3.09,0,4.94-1.93,4.94-5.16v-19.61h6.03v19.78
		c0,5.06-3.39,10.17-10.97,10.17h-12.03h-0.94c0,0-0.01,1.12-0.01,1.69c5.58,8.94,15.51,14.9,26.8,14.9
		c17.41,0,31.57-14.16,31.57-31.57C-561.86,405.1-562.14,402.73-562.66,400.45z"/>
	<linearGradient id="SVGID_8_" gradientUnits="userSpaceOnUse" x1="-540.8543" y1="407.5362" x2="-477.4773" y2="407.5362">
		<stop  offset="0" style="stop-color:#D6CFE7"/>
		<stop  offset="1" style="stop-color:#423354"/>
	</linearGradient>
	<path class="st16" d="M-493.37,399.49v-0.02h-0.01C-493.38,399.47-493.37,399.48-493.37,399.49z M-503.94,392.56h0.99h20.71v-1.69
		c-5.58-8.94-15.51-14.9-26.8-14.9c-17.41,0-31.57,14.16-31.57,31.57c0,2.08,0.2,4.11,0.59,6.08c-0.5,0.32-0.83,0.87-0.83,1.5
		c0,0.98,0.8,1.78,1.78,1.78c0.98,0,1.78-0.8,1.78-1.78c0-0.71-0.42-1.32-1.03-1.61c-0.39-1.93-0.6-3.93-0.6-5.98
		c0-16.48,13.4-29.88,29.88-29.88c10.31,0,19.42,5.25,24.79,13.21h-18.7h-0.99h-4.57v8.61h5.21c1.64,0,2.51,1.17,2.51,2.33
		c0,1.16-0.86,2.33-2.51,2.33h-5.21v8.12h2.91l5.55,11.68h10.87l-7.05-13.6c1.73-1.06,4.83-3.66,4.83-8.53
		c0-0.37-0.02-0.74-0.06-1.1c0.47-0.32,0.78-0.86,0.78-1.47c0-0.98-0.8-1.78-1.78-1.78c-0.98,0-1.78,0.8-1.78,1.78
		c0,0.74,0.46,1.38,1.1,1.65c0.03,0.31,0.05,0.62,0.05,0.92c0,4.75-3.56,6.9-4.65,7.44l-0.77,0.38l6.54,12.62h-7.03l-5.55-11.68
		h-2.29v-4.75h3.52c2.72,0,4.19-2.07,4.19-4.02c0-1.95-1.47-4.02-4.19-4.02h-3.52v-5.23H-503.94z M-478.28,400.45
		c0.3-0.32,0.49-0.75,0.49-1.22c0-0.98-0.8-1.78-1.78-1.78s-1.78,0.8-1.78,1.78c0,0.87,0.63,1.6,1.46,1.75
		c0.47,2.11,0.73,4.3,0.73,6.55c0,16.48-13.4,29.88-29.88,29.88c-10.31,0-19.41-5.25-24.79-13.21h11.14v0
		c6.05-0.07,12.49-3.78,12.49-11.86v-21.47h-9.4v21.29c0,2.31-1.1,3.47-3.25,3.47c-0.68,0-1.16-0.1-1.59-0.31
		c0.01-0.07,0.02-0.13,0.02-0.2c0-0.98-0.8-1.78-1.78-1.78c-0.98,0-1.78,0.8-1.78,1.78c0,0.98,0.8,1.78,1.78,1.78
		c0.28,0,0.55-0.07,0.78-0.19c0.66,0.37,1.46,0.61,2.56,0.61c3.09,0,4.94-1.93,4.94-5.16v-19.61h6.03v19.78
		c0,5.06-3.39,10.17-10.97,10.17h-12.03h-0.94c0,0-0.01,1.12-0.01,1.69c5.58,8.94,15.51,14.9,26.8,14.9
		c17.41,0,31.57-14.16,31.57-31.57C-477.48,405.1-477.76,402.73-478.28,400.45z"/>
	<linearGradient id="SVGID_9_" gradientUnits="userSpaceOnUse" x1="-496.8915" y1="188.4561" x2="-405.4935" y2="188.4561">
		<stop  offset="5.618000e-03" style="stop-color:#212637"/>
		<stop  offset="0.0843" style="stop-color:#423354"/>
		<stop  offset="0.382" style="stop-color:#7B5C9B"/>
		<stop  offset="0.5618" style="stop-color:#D6CFE7"/>
		<stop  offset="0.716" style="stop-color:#9880B2"/>
		<stop  offset="0.8034" style="stop-color:#7B5C9B"/>
		<stop  offset="0.9551" style="stop-color:#423354"/>
	</linearGradient>
	<path class="st17" d="M-428.42,176.85v-0.03h-0.01C-428.42,176.83-428.42,176.84-428.42,176.85z M-443.66,166.85h1.42h29.86v-2.43
		c-8.05-12.89-22.36-21.49-38.65-21.49c-25.1,0-45.53,20.42-45.53,45.53c0,3,0.3,5.93,0.85,8.77c-0.72,0.46-1.2,1.25-1.2,2.17
		c0,1.42,1.15,2.57,2.57,2.57s2.57-1.15,2.57-2.57c0-1.03-0.61-1.91-1.48-2.32c-0.57-2.79-0.87-5.67-0.87-8.62
		c0-23.76,19.33-43.09,43.09-43.09c14.87,0,28,7.57,35.75,19.06h-26.97h-1.42h-6.6v12.41h7.51c2.37,0,3.61,1.69,3.61,3.36
		c0,1.67-1.24,3.36-3.61,3.36h-7.51v11.71h4.2l8.01,16.84h15.67l-10.17-19.61c2.49-1.53,6.97-5.27,6.97-12.31
		c0-0.53-0.03-1.06-0.08-1.59c0.68-0.46,1.12-1.24,1.12-2.12c0-1.42-1.15-2.57-2.57-2.57s-2.57,1.15-2.57,2.57
		c0,1.07,0.66,1.99,1.59,2.37c0.04,0.44,0.07,0.89,0.07,1.33c0,6.85-5.13,9.95-6.7,10.73l-1.11,0.55l9.44,18.2h-10.13l-8.01-16.84
		h-3.3v-6.85h5.08c3.93,0,6.05-2.99,6.05-5.79c0-2.81-2.12-5.79-6.05-5.79h-5.08v-7.55H-443.66z M-406.65,178.24
		c0.43-0.46,0.7-1.07,0.7-1.76c0-1.42-1.15-2.57-2.57-2.57c-1.42,0-2.57,1.15-2.57,2.57c0,1.26,0.91,2.3,2.11,2.52
		c0.68,3.04,1.05,6.2,1.05,9.45c0,23.76-19.33,43.09-43.09,43.09c-14.87,0-28-7.57-35.74-19.05h16.07v0
		c8.72-0.1,18.01-5.46,18.01-17.1v-30.96h-13.56v30.71c0,3.33-1.58,5.01-4.69,5.01c-0.98,0-1.67-0.15-2.29-0.45
		c0.01-0.1,0.03-0.19,0.03-0.3c0-1.42-1.15-2.57-2.57-2.57s-2.57,1.15-2.57,2.57c0,1.42,1.15,2.57,2.57,2.57
		c0.41,0,0.79-0.1,1.13-0.27c0.95,0.54,2.1,0.88,3.7,0.88c4.46,0,7.13-2.78,7.13-7.45v-28.28h8.69v28.53
		c0,7.3-4.89,14.67-15.82,14.67h-17.35h-1.36c0,0-0.01,1.61-0.01,2.44c8.05,12.89,22.36,21.48,38.64,21.48
		c25.1,0,45.53-20.42,45.53-45.53C-405.49,184.95-405.9,181.53-406.65,178.24z"/>
	<radialGradient id="SVGID_10_" cx="-540.8543" cy="312.8702" r="45.6122" gradientUnits="userSpaceOnUse">
		<stop  offset="0" style="stop-color:#E2DDEE"/>
		<stop  offset="0.2048" style="stop-color:#A08AB8"/>
		<stop  offset="0.3495" style="stop-color:#7B5C9B"/>
		<stop  offset="0.4392" style="stop-color:#72558F"/>
		<stop  offset="0.6002" style="stop-color:#5E4775"/>
		<stop  offset="0.7829" style="stop-color:#423354"/>
		<stop  offset="0.856" style="stop-color:#39304C"/>
		<stop  offset="1" style="stop-color:#212637"/>
	</radialGradient>
	<path class="st18" d="M-518.08,301.26v-0.03h-0.01C-518.08,301.24-518.08,301.25-518.08,301.26z M-533.32,291.27h1.42h29.86v-2.43
		c-8.05-12.89-22.36-21.49-38.65-21.49c-25.1,0-45.53,20.42-45.53,45.53c0,3,0.3,5.93,0.85,8.77c-0.72,0.46-1.2,1.25-1.2,2.17
		c0,1.42,1.15,2.57,2.57,2.57c1.42,0,2.57-1.15,2.57-2.57c0-1.03-0.61-1.91-1.48-2.32c-0.57-2.79-0.87-5.67-0.87-8.62
		c0-23.76,19.33-43.09,43.09-43.09c14.87,0,28,7.57,35.75,19.06h-26.97h-1.42h-6.6v12.41h7.51c2.37,0,3.61,1.69,3.61,3.36
		c0,1.67-1.24,3.36-3.61,3.36h-7.51v11.71h4.2l8.01,16.84h15.67l-10.17-19.61c2.49-1.53,6.97-5.27,6.97-12.31
		c0-0.53-0.03-1.06-0.08-1.59c0.68-0.46,1.12-1.24,1.12-2.12c0-1.42-1.15-2.57-2.57-2.57s-2.57,1.15-2.57,2.57
		c0,1.07,0.66,1.99,1.59,2.37c0.04,0.44,0.07,0.89,0.07,1.33c0,6.85-5.13,9.95-6.7,10.73l-1.11,0.55l9.44,18.2h-10.13l-8.01-16.84
		h-3.3v-6.85h5.08c3.93,0,6.05-2.99,6.05-5.79c0-2.81-2.12-5.79-6.05-5.79h-5.08v-7.55H-533.32z M-496.31,302.66
		c0.43-0.46,0.7-1.07,0.7-1.76c0-1.42-1.15-2.57-2.57-2.57c-1.42,0-2.57,1.15-2.57,2.57c0,1.26,0.91,2.3,2.11,2.52
		c0.68,3.04,1.05,6.2,1.05,9.45c0,23.76-19.33,43.09-43.09,43.09c-14.87,0-28-7.57-35.74-19.05h16.07v0
		c8.72-0.1,18.01-5.46,18.01-17.1v-30.96h-13.56v30.71c0,3.33-1.58,5.01-4.69,5.01c-0.98,0-1.67-0.15-2.29-0.45
		c0.01-0.1,0.03-0.19,0.03-0.3c0-1.42-1.15-2.57-2.57-2.57s-2.57,1.15-2.57,2.57s1.15,2.57,2.57,2.57c0.41,0,0.79-0.1,1.13-0.27
		c0.95,0.54,2.1,0.88,3.7,0.88c4.46,0,7.13-2.78,7.13-7.45v-28.28h8.69v28.53c0,7.3-4.89,14.67-15.82,14.67h-17.35h-1.36
		c0,0-0.01,1.61-0.01,2.44c8.05,12.89,22.36,21.48,38.64,21.48c25.1,0,45.53-20.42,45.53-45.53
		C-495.16,309.36-495.56,305.94-496.31,302.66z"/>
	<linearGradient id="SVGID_11_" gradientUnits="userSpaceOnUse" x1="-114.5811" y1="262.0701" x2="-23.1832" y2="262.0701">
		<stop  offset="0" style="stop-color:#E5E2DF"/>
		<stop  offset="0" style="stop-color:#DED9D6"/>
		<stop  offset="0.264" style="stop-color:#423354"/>
		<stop  offset="0.3276" style="stop-color:#584A65"/>
		<stop  offset="0.4681" style="stop-color:#9A90A0"/>
		<stop  offset="0.573" style="stop-color:#E0E0E0"/>
		<stop  offset="0.6676" style="stop-color:#9A91A0"/>
		<stop  offset="0.7676" style="stop-color:#675A72"/>
		<stop  offset="0.8399" style="stop-color:#4C3D5B"/>
		<stop  offset="0.8764" style="stop-color:#423354"/>
		<stop  offset="1" style="stop-color:#D1D3D4"/>
		<stop  offset="1" style="stop-color:#A7A9AC"/>
	</linearGradient>
	<path class="st19" d="M-46.11,250.46v-0.03h-0.01C-46.11,250.44-46.11,250.45-46.11,250.46z M-61.35,240.47h1.42h29.86v-2.43
		c-8.05-12.89-22.36-21.49-38.65-21.49c-25.1,0-45.53,20.42-45.53,45.53c0,3,0.3,5.93,0.85,8.77c-0.72,0.46-1.2,1.25-1.2,2.17
		c0,1.42,1.15,2.57,2.57,2.57c1.42,0,2.57-1.15,2.57-2.57c0-1.03-0.61-1.91-1.48-2.32c-0.57-2.79-0.87-5.67-0.87-8.62
		c0-23.76,19.33-43.09,43.09-43.09c14.87,0,28,7.57,35.75,19.06h-26.97h-1.42h-6.6v12.41h7.51c2.37,0,3.61,1.69,3.61,3.36
		c0,1.67-1.24,3.36-3.61,3.36h-7.51v11.71h4.2l8.01,16.84h15.67l-10.17-19.61c2.49-1.53,6.97-5.27,6.97-12.31
		c0-0.53-0.03-1.06-0.08-1.59c0.68-0.46,1.12-1.24,1.12-2.12c0-1.42-1.15-2.57-2.57-2.57c-1.42,0-2.57,1.15-2.57,2.57
		c0,1.07,0.66,1.99,1.59,2.37c0.04,0.44,0.07,0.89,0.07,1.33c0,6.85-5.13,9.95-6.7,10.73l-1.11,0.55l9.44,18.2H-54.2l-8.01-16.84
		h-3.3v-6.85h5.08c3.93,0,6.05-2.99,6.05-5.79c0-2.81-2.12-5.79-6.05-5.79h-5.08v-7.55H-61.35z M-24.34,251.86
		c0.43-0.46,0.7-1.07,0.7-1.76c0-1.42-1.15-2.57-2.57-2.57s-2.57,1.15-2.57,2.57c0,1.26,0.91,2.3,2.11,2.52
		c0.68,3.04,1.05,6.2,1.05,9.45c0,23.76-19.33,43.09-43.09,43.09c-14.87,0-28-7.57-35.74-19.05h16.07v0
		c8.72-0.1,18.01-5.46,18.01-17.1v-30.96h-13.56v30.71c0,3.33-1.58,5.01-4.69,5.01c-0.98,0-1.67-0.15-2.29-0.45
		c0.01-0.1,0.03-0.19,0.03-0.3c0-1.42-1.15-2.57-2.57-2.57c-1.42,0-2.57,1.15-2.57,2.57s1.15,2.57,2.57,2.57
		c0.41,0,0.79-0.1,1.13-0.27c0.95,0.54,2.1,0.88,3.7,0.88c4.46,0,7.13-2.78,7.13-7.45v-28.28h8.69V269c0,7.3-4.89,14.67-15.82,14.67
		h-17.35h-1.36c0,0-0.01,1.61-0.01,2.44C-99.3,299-84.99,307.6-68.71,307.6c25.1,0,45.53-20.42,45.53-45.53
		C-23.18,258.56-23.58,255.14-24.34,251.86z"/>
	<linearGradient id="SVGID_12_" gradientUnits="userSpaceOnUse" x1="46.6366" y1="-91.7971" x2="138.0346" y2="-91.7971">
		<stop  offset="0" style="stop-color:#E5E2DF"/>
		<stop  offset="0" style="stop-color:#DED9D6"/>
		<stop  offset="0.0355" style="stop-color:#CDCCCA"/>
		<stop  offset="0.1037" style="stop-color:#A5A9A9"/>
		<stop  offset="0.1966" style="stop-color:#6D7678"/>
		<stop  offset="0.264" style="stop-color:#465053"/>
		<stop  offset="0.2898" style="stop-color:#545E62"/>
		<stop  offset="0.3895" style="stop-color:#899194"/>
		<stop  offset="0.4732" style="stop-color:#B6BABD"/>
		<stop  offset="0.5369" style="stop-color:#D4D5D6"/>
		<stop  offset="0.573" style="stop-color:#E0E0E0"/>
		<stop  offset="0.6313" style="stop-color:#D5D6D8"/>
		<stop  offset="0.7293" style="stop-color:#BBBEC2"/>
		<stop  offset="0.8545" style="stop-color:#92999F"/>
		<stop  offset="0.8764" style="stop-color:#8B9298"/>
		<stop  offset="1" style="stop-color:#D1D3D4"/>
		<stop  offset="1" style="stop-color:#A7A9AC"/>
	</linearGradient>
	<path class="st20" d="M115.11-103.4v-0.03h-0.01C115.11-103.42,115.11-103.41,115.11-103.4z M99.87-113.4h1.42h29.86v-2.43
		c-8.05-12.89-22.36-21.49-38.65-21.49c-25.1,0-45.53,20.42-45.53,45.53c0,3,0.3,5.93,0.85,8.77c-0.72,0.46-1.2,1.25-1.2,2.17
		c0,1.42,1.15,2.57,2.57,2.57c1.42,0,2.57-1.15,2.57-2.57c0-1.03-0.61-1.91-1.48-2.32c-0.57-2.79-0.87-5.67-0.87-8.62
		c0-23.76,19.33-43.09,43.09-43.09c14.87,0,28,7.57,35.75,19.06h-26.97h-1.42h-6.6v12.41h7.51c2.37,0,3.61,1.69,3.61,3.36
		c0,1.67-1.24,3.36-3.61,3.36h-7.51v11.71h4.2l8.01,16.84h15.67l-10.17-19.61c2.49-1.53,6.97-5.27,6.97-12.31
		c0-0.53-0.03-1.06-0.08-1.59c0.68-0.46,1.12-1.24,1.12-2.12c0-1.42-1.15-2.57-2.57-2.57s-2.57,1.15-2.57,2.57
		c0,1.07,0.66,1.99,1.59,2.37c0.04,0.44,0.07,0.89,0.07,1.33c0,6.85-5.13,9.95-6.7,10.73l-1.11,0.55l9.44,18.2h-10.13l-8.01-16.84
		h-3.3v-6.85h5.08c3.93,0,6.05-2.99,6.05-5.79c0-2.81-2.12-5.79-6.05-5.79h-5.08v-7.55H99.87z M136.88-102.01
		c0.43-0.46,0.7-1.07,0.7-1.76c0-1.42-1.15-2.57-2.57-2.57s-2.57,1.15-2.57,2.57c0,1.26,0.91,2.3,2.11,2.52
		c0.68,3.04,1.05,6.2,1.05,9.45c0,23.76-19.33,43.09-43.09,43.09c-14.87,0-28-7.57-35.74-19.05h16.07v0
		c8.72-0.1,18.01-5.46,18.01-17.1v-30.96H77.28v30.71c0,3.33-1.58,5.01-4.69,5.01c-0.98,0-1.67-0.15-2.29-0.45
		c0.01-0.1,0.03-0.19,0.03-0.3c0-1.42-1.15-2.57-2.57-2.57c-1.42,0-2.57,1.15-2.57,2.57c0,1.42,1.15,2.57,2.57,2.57
		c0.41,0,0.79-0.1,1.13-0.27c0.95,0.54,2.1,0.88,3.7,0.88c4.46,0,7.13-2.78,7.13-7.45v-28.28h8.69v28.53
		c0,7.3-4.89,14.67-15.82,14.67H55.24h-1.36c0,0-0.01,1.61-0.01,2.44c8.05,12.89,22.36,21.48,38.64,21.48
		c25.1,0,45.53-20.42,45.53-45.53C138.03-95.31,137.63-98.73,136.88-102.01z"/>
	<path class="st21" d="M130.05,64.42v-0.06h-0.01C130.04,64.38,130.04,64.4,130.05,64.42z M101.1,45.44h2.7h56.72v-4.62
		C145.24,16.33,118.05,0,87.12,0C39.45,0,0.66,38.79,0.66,86.46c0,5.7,0.56,11.27,1.62,16.66C0.91,103.99,0,105.51,0,107.24
		c0,2.69,2.18,4.88,4.88,4.88c2.69,0,4.88-2.18,4.88-4.88c0-1.95-1.16-3.63-2.82-4.41c-1.08-5.29-1.65-10.77-1.65-16.37
		C5.28,41.34,42,4.62,87.12,4.62c28.24,0,53.18,14.37,67.89,36.19H103.8h-2.7H88.57v23.58h14.26c4.51,0,6.86,3.21,6.86,6.38
		c0,3.17-2.36,6.38-6.86,6.38H88.57V99.4h7.97l15.21,31.99h29.77l-19.31-37.24c4.73-2.91,13.23-10.02,13.23-23.38
		c0-1.01-0.05-2.02-0.15-3.01c1.28-0.88,2.13-2.35,2.13-4.02c0-2.69-2.18-4.88-4.88-4.88c-2.69,0-4.88,2.18-4.88,4.88
		c0,2.04,1.25,3.78,3.02,4.51c0.08,0.84,0.13,1.69,0.13,2.53c0,13.01-9.74,18.89-12.72,20.39L116,92.2l17.92,34.56h-19.24
		L99.47,94.77H93.2v-13h9.64c7.46,0,11.49-5.67,11.49-11c0-5.33-4.03-11-11.49-11H93.2V45.44H101.1z M171.39,67.07
		c0.82-0.87,1.33-2.04,1.33-3.33c0-2.69-2.18-4.88-4.88-4.88c-2.69,0-4.88,2.18-4.88,4.88c0,2.39,1.73,4.38,4,4.79
		c1.3,5.78,2,11.78,2,17.94c0,45.13-36.71,81.84-81.84,81.84c-28.24,0-53.17-14.38-67.89-36.19h30.51v-0.01
		c16.56-0.19,34.2-10.36,34.2-32.48V40.81H58.2v58.33c0,6.32-3,9.52-8.91,9.52c-1.85,0-3.18-0.28-4.34-0.85
		c0.02-0.19,0.06-0.37,0.06-0.56c0-2.69-2.18-4.88-4.88-4.88c-2.69,0-4.88,2.18-4.88,4.88c0,2.69,2.18,4.88,4.88,4.88
		c0.77,0,1.49-0.2,2.14-0.52c1.8,1.02,3.99,1.68,7.02,1.68c8.48,0,13.54-5.29,13.54-14.14v-53.7h16.5v54.18
		c0,13.87-9.29,27.87-30.04,27.87H16.33h-2.58c0,0-0.03,3.06-0.03,4.64c15.29,24.48,42.47,40.8,73.39,40.8
		c47.68,0,86.46-38.79,86.46-86.46C173.59,79.8,172.82,73.3,171.39,67.07z"/>
</g>
<g id="Layer_2">
	<path d="M-221.84-57.68V5.4c0,6.83-3.24,10.29-9.64,10.29c-2.01,0-3.44-0.31-4.7-0.92c0.02-0.2,0.06-0.4,0.06-0.61
		c0-2.91-2.36-5.27-5.27-5.27s-5.27,2.36-5.27,5.27c0,2.91,2.36,5.27,5.27,5.27c0.84,0,1.61-0.21,2.32-0.56
		c1.95,1.1,4.31,1.81,7.59,1.81c9.17,0,14.64-5.72,14.64-15.29v-58.08H-199v58.6c0,15-10.05,30.14-32.49,30.14v5
		c18.06,0,37.49-11,37.49-35.14v-63.6H-221.84z"/>
	<path d="M-144.14-32.15v-0.07h-0.02C-144.15-32.19-144.14-32.17-144.14-32.15z"/>
	<path d="M-152.61-0.01c5.11-3.15,14.31-10.83,14.31-25.28c0-1.1-0.06-2.18-0.16-3.26c1.39-0.95,2.3-2.54,2.3-4.35
		c0-2.91-2.36-5.27-5.27-5.27c-2.91,0-5.27,2.36-5.27,5.27c0,2.2,1.35,4.08,3.27,4.87c0.09,0.91,0.15,1.83,0.15,2.74
		c0,14.07-10.53,20.43-13.76,22.05l-2.27,1.13l19.38,37.38h-20.81l-16.45-34.6H-184v-14.06h10.43c8.07,0,12.42-6.13,12.42-11.9
		c0-5.77-4.35-11.9-12.42-11.9H-184v-15.5h11.47v-5H-189v25.5h15.43c4.87,0,7.42,3.47,7.42,6.9c0,3.43-2.55,6.9-7.42,6.9H-189V5.67
		h8.62l16.45,34.6h32.19L-152.61-0.01z"/>
	<rect x="-144.35" y="-85.85" transform="matrix(-1.836970e-16 1 -1 -1.836970e-16 -197.0376 86.6722)" width="5" height="61.34"/>
	<rect x="-253.2" y="19.34" transform="matrix(-1.836970e-16 1 -1 -1.836970e-16 -212.1398 289.251)" width="5" height="38.42"/>
</g>
<g id="Animation">
	<path d="M130.73,65.42v-0.06h-0.01C130.73,65.38,130.73,65.4,130.73,65.42z"/>
	<path id="Bottom_Circle" d="M368.9,311.03c0.82-0.87,1.33-2.03,1.33-3.32c0-2.69-2.18-4.86-4.86-4.86c-2.69,0-4.86,2.18-4.86,4.86
		c0,2.39,1.72,4.36,3.99,4.77c1.29,5.76,1.99,11.74,1.99,17.89c0,44.99-36.6,81.58-81.58,81.58c-30.09,0-56.43-16.38-70.57-40.69
		h-2.57c0,0-0.03,3.05-0.03,4.62c15.24,24.4,42.34,40.67,73.16,40.67c47.53,0,86.19-38.67,86.19-86.19
		C371.09,323.72,370.33,317.25,368.9,311.03z"/>
	<path id="top-Circle" d="M284.9,244.18c-47.53,0-86.19,38.67-86.19,86.19c0,5.68,0.56,11.23,1.61,16.61
		c-1.36,0.86-2.27,2.37-2.27,4.1c0,2.69,2.18,4.86,4.86,4.86c2.69,0,4.86-2.18,4.86-4.86c0-1.95-1.15-3.62-2.81-4.39
		c-1.08-5.28-1.65-10.73-1.65-16.32c0-44.99,36.6-81.58,81.58-81.58c28.15,0,53.01,14.33,67.68,36.08h5.49
		C342.83,260.45,315.73,244.18,284.9,244.18z"/>
	<path id="R" d="M301.53,289.47h56.54v-4.61h-56.54h-15.18v23.5h14.22c4.49,0,6.84,3.2,6.84,6.36c0,3.16-2.35,6.36-6.84,6.36h-14.22
		v22.18h7.95l15.16,31.89h29.68l-19.25-37.13c4.71-2.9,13.19-9.99,13.19-23.3c0-1.01-0.05-2.01-0.15-3
		c1.28-0.88,2.12-2.34,2.12-4.01c0-2.69-2.18-4.86-4.86-4.86c-2.69,0-4.86,2.18-4.86,4.86c0,2.03,1.25,3.77,3.01,4.49
		c0.08,0.84,0.13,1.68,0.13,2.52c0,12.97-9.71,18.83-12.69,20.32l-2.09,1.05l17.86,34.45h-19.18l-15.16-31.89h-6.25v-12.96h9.61
		c7.44,0,11.45-5.65,11.45-10.97c0-5.32-4.01-10.97-11.45-10.97h-9.61v-14.29H301.53z"/>
	<path id="J" d="M256.07,284.86v58.14c0,6.3-2.99,9.49-8.89,9.49c-1.85,0-3.17-0.28-4.33-0.85c0.02-0.19,0.06-0.37,0.06-0.56
		c0-2.69-2.18-4.86-4.86-4.86c-2.69,0-4.86,2.18-4.86,4.86c0,2.69,2.18,4.86,4.86,4.86c0.77,0,1.49-0.2,2.14-0.51
		c1.8,1.02,3.98,1.67,7,1.67c8.45,0,13.5-5.27,13.5-14.1v-53.53h16.45v54.01c0,13.83-9.26,27.78-29.95,27.78h-35.42v4.61h35.42
		c16.64,0,34.56-10.14,34.56-32.39v-58.62H256.07z"/>
</g>
</svg>
