<svg id="JR-Logo" xmlns="http://www.w3.org/2000/svg" viewBox="0 0 140.1 142.7">
  <defs>
    <style>
      .cls-1 {
        fill: #231f20;
      }
    </style>
  </defs>
  <path id="R" class="cls-1" d="M73.7,34.2v21H86.2c3.1,0,4.5,2.1,4.5,4.1a4.1,4.1,0,0,1-4.5,4.2H73.7V83.4h6.8l12.2,25.8h26.2L103,78.5a22.5,22.5,0,0,0,10.4-19.2c0-.6-.1-1.3-.1-2a4.9,4.9,0,0,0-3.2-8.5,4.9,4.9,0,0,0-4.9,4.9,4.7,4.7,0,0,0,2.4,4.2,7.1,7.1,0,0,1,.1,1.4A17.2,17.2,0,0,1,98,74.9l-2.6,1.3.5.9,13.7,26.4H96.3L84.1,77.7H79.4V69.2h6.8a9.9,9.9,0,1,0,0-19.7H79.4V39.9h52.9V34.2Z" transform="translate(-1.9 -0.6)"/>
  <path id="J" class="cls-1" d="M45.5,34.2v48c0,4.6-2,6.7-6.2,6.7a9,9,0,0,1-2.5-.3,4.9,4.9,0,1,0-4.9,5.1,5.1,5.1,0,0,0,1.7-.3,12.6,12.6,0,0,0,5.7,1.2c7.3,0,11.8-4.7,11.8-12.4V39.9H62.4V82.6c0,14.9-11.6,21.5-23.1,21.5H11.7v5.7H39.3a30.4,30.4,0,0,0,19.5-6.6c6.1-4.9,9.3-12,9.3-20.6V34.2Z" transform="translate(-1.9 -0.6)"/>
  <path class="cls-1" d="M3.6,86.7A5,5,0,0,0,3,91.6a4.7,4.7,0,0,0,3.3,2.8,4.8,4.8,0,0,0,6.1-4.7A5,5,0,0,0,9,85,69.8,69.8,0,0,1,7.6,71.4C7.6,35.5,36.7,6.3,72.4,6.3A65,65,0,0,1,128,38a7.7,7.7,0,0,1,.7,1.6v.3h3.6V34A70.2,70.2,0,0,0,72.4.6C33.5.6,1.9,32.4,1.9,71.4A71.7,71.7,0,0,0,3.6,86.7Z" transform="translate(-1.9 -0.6)"/>
  <path id="Bottom-Circle" class="cls-1" d="M140.4,57.3a5,5,0,0,0,.6-4.9,4.7,4.7,0,0,0-3.3-2.8,4.8,4.8,0,0,0-6.1,4.7A5,5,0,0,0,135,59a69.8,69.8,0,0,1,1.4,13.6c0,35.9-29.1,65.1-64.8,65.1a65,65,0,0,1-55.8-32.1,1.1,1.1,0,0,1-.3-.7l-.2-.8H11.7V110a70.2,70.2,0,0,0,59.8,33.4c38.9,0,70.5-31.8,70.5-70.8A71.7,71.7,0,0,0,140.4,57.3Z" transform="translate(-1.9 -0.6)"/>
</svg>
