<?xml version="1.0" encoding="utf-8"?>
<!-- Generator: Adobe Illustrator 24.3.0, SVG Export Plug-In . SVG Version: 6.00 Build 0)  -->
<svg version="1.1" xmlns="http://www.w3.org/2000/svg" xmlns:xlink="http://www.w3.org/1999/xlink" x="0px" y="0px"
	 viewBox="0 0 173.59 173.59" style="enable-background:new 0 0 173.59 173.59;" xml:space="preserve">
<style type="text/css">
	.st0{fill:url(#SVGID_1_);}
	.st1{fill:none;stroke:#000000;stroke-width:5;}
	.st2{fill:#D6CFE7;}
	.st3{fill:#E2DDEE;}
	.st4{fill:#423354;}
	.st5{fill:#614778;}
	.st6{fill:#7B5C9B;}
	.st7{fill:#212637;}
	.st8{fill:#DADDE1;}
	.st9{fill:#F1F2F5;}
	.st10{fill:url(#SVGID_2_);}
	.st11{fill:url(#SVGID_3_);}
	.st12{fill:url(#SVGID_4_);}
	.st13{fill:url(#SVGID_5_);}
	.st14{fill:url(#SVGID_6_);}
	.st15{fill:url(#SVGID_7_);}
	.st16{fill:url(#SVGID_8_);}
	.st17{fill:url(#SVGID_9_);}
	.st18{fill:url(#SVGID_10_);}
	.st19{fill:url(#SVGID_11_);}
	.st20{fill:url(#SVGID_12_);}
	.st21{fill:#0B0B0B;}
</style>
<g id="Layer_1">
	<path class="st21" d="M130.05,64.42v-0.06h-0.01C130.04,64.38,130.04,64.4,130.05,64.42z M101.1,45.44h2.7h56.72v-4.62
		C145.24,16.33,118.05,0,87.12,0C39.45,0,0.66,38.79,0.66,86.46c0,5.7,0.56,11.27,1.62,16.66C0.91,103.99,0,105.51,0,107.24
		c0,2.69,2.18,4.88,4.88,4.88c2.69,0,4.88-2.18,4.88-4.88c0-1.95-1.16-3.63-2.82-4.41c-1.08-5.29-1.65-10.77-1.65-16.37
		C5.28,41.34,42,4.62,87.12,4.62c28.24,0,53.18,14.37,67.89,36.19H103.8h-2.7H88.57v23.58h14.26c4.51,0,6.86,3.21,6.86,6.38
		c0,3.17-2.36,6.38-6.86,6.38H88.57V99.4h7.97l15.21,31.99h29.77l-19.31-37.24c4.73-2.91,13.23-10.02,13.23-23.38
		c0-1.01-0.05-2.02-0.15-3.01c1.28-0.88,2.13-2.35,2.13-4.02c0-2.69-2.18-4.88-4.88-4.88c-2.69,0-4.88,2.18-4.88,4.88
		c0,2.04,1.25,3.78,3.02,4.51c0.08,0.84,0.13,1.69,0.13,2.53c0,13.01-9.74,18.89-12.72,20.39L116,92.2l17.92,34.56h-19.24
		L99.47,94.77H93.2v-13h9.64c7.46,0,11.49-5.67,11.49-11c0-5.33-4.03-11-11.49-11H93.2V45.44H101.1z M171.39,67.07
		c0.82-0.87,1.33-2.04,1.33-3.33c0-2.69-2.18-4.88-4.88-4.88c-2.69,0-4.88,2.18-4.88,4.88c0,2.39,1.73,4.38,4,4.79
		c1.3,5.78,2,11.78,2,17.94c0,45.13-36.71,81.84-81.84,81.84c-28.24,0-53.17-14.38-67.89-36.19h30.51v-0.01
		c16.56-0.19,34.2-10.36,34.2-32.48V40.81H58.2v58.33c0,6.32-3,9.52-8.91,9.52c-1.85,0-3.18-0.28-4.34-0.85
		c0.02-0.19,0.06-0.37,0.06-0.56c0-2.69-2.18-4.88-4.88-4.88c-2.69,0-4.88,2.18-4.88,4.88c0,2.69,2.18,4.88,4.88,4.88
		c0.77,0,1.49-0.2,2.14-0.52c1.8,1.02,3.99,1.68,7.02,1.68c8.48,0,13.54-5.29,13.54-14.14v-53.7h16.5v54.18
		c0,13.87-9.29,27.87-30.04,27.87H16.33h-2.58c0,0-0.03,3.06-0.03,4.64c15.29,24.48,42.47,40.8,73.39,40.8
		c47.68,0,86.46-38.79,86.46-86.46C173.59,79.8,172.82,73.3,171.39,67.07z"/>
</g>
<g id="Layer_2">
</g>
<g id="Animation">
	<path d="M130.73,65.42v-0.06h-0.01C130.73,65.38,130.73,65.4,130.73,65.42z"/>
</g>
</svg>
