<?xml version="1.0" encoding="utf-8"?>
<!-- Generator: Adobe Illustrator 24.3.0, SVG Export Plug-In . SVG Version: 6.00 Build 0)  -->
<svg version="1.1" xmlns="http://www.w3.org/2000/svg" xmlns:xlink="http://www.w3.org/1999/xlink" x="0px" y="0px"
	 viewBox="0 0 173.59 173.59" style="enable-background:new 0 0 173.59 173.59;" xml:space="preserve">
<style type="text/css">
	.st0{fill:url(#SVGID_1_);}
	.st1{fill:none;stroke:#000000;stroke-width:5;}
	.st2{fill:#D6CFE7;}
	.st3{fill:#E2DDEE;}
	.st4{fill:#423354;}
	.st5{fill:#614778;}
	.st6{fill:#7B5C9B;}
	.st7{fill:#212637;}
	.st8{fill:#DADDE1;}
	.st9{fill:#F1F2F5;}
	.st10{fill:url(#SVGID_2_);}
	.st11{fill:url(#SVGID_3_);}
	.st12{fill:url(#SVGID_4_);}
	.st13{fill:url(#SVGID_5_);}
	.st14{fill:url(#SVGID_6_);}
	.st15{fill:url(#SVGID_7_);}
	.st16{fill:url(#SVGID_8_);}
	.st17{fill:url(#SVGID_9_);}
	.st18{fill:url(#SVGID_10_);}
	.st19{fill:url(#SVGID_11_);}
	.st20{fill:url(#SVGID_12_);}
	.st21{fill:#0B0B0B;}
</style>
<g id="Layer_1">
	<path class="st21" d="M109.57,72.48v-0.03h-0.01C109.56,72.45,109.57,72.46,109.57,72.48z M94.33,62.48h1.42h29.86v-2.43
		c-8.05-12.89-22.36-21.49-38.65-21.49c-25.1,0-45.53,20.42-45.53,45.53c0,3,0.3,5.93,0.85,8.77c-0.72,0.46-1.2,1.25-1.2,2.17
		c0,1.42,1.15,2.57,2.57,2.57c1.42,0,2.57-1.15,2.57-2.57c0-1.03-0.61-1.91-1.48-2.32c-0.57-2.79-0.87-5.67-0.87-8.62
		c0-23.76,19.33-43.09,43.09-43.09c14.87,0,28,7.57,35.75,19.06H95.75h-1.42h-6.6v12.41h7.51c2.37,0,3.61,1.69,3.61,3.36
		c0,1.67-1.24,3.36-3.61,3.36h-7.51v11.71h4.2l8.01,16.84h15.67l-10.17-19.61c2.49-1.53,6.97-5.27,6.97-12.31
		c0-0.53-0.03-1.06-0.08-1.59c0.68-0.46,1.12-1.24,1.12-2.12c0-1.42-1.15-2.57-2.57-2.57s-2.57,1.15-2.57,2.57
		c0,1.07,0.66,1.99,1.59,2.37c0.04,0.44,0.07,0.89,0.07,1.33c0,6.85-5.13,9.95-6.7,10.73l-1.11,0.55l9.44,18.2h-10.13l-8.01-16.84
		h-3.3v-6.85h5.08c3.93,0,6.05-2.99,6.05-5.79c0-2.81-2.12-5.79-6.05-5.79h-5.08v-7.55H94.33z M131.33,73.87
		c0.43-0.46,0.7-1.07,0.7-1.76c0-1.42-1.15-2.57-2.57-2.57s-2.57,1.15-2.57,2.57c0,1.26,0.91,2.3,2.11,2.52
		c0.68,3.04,1.05,6.2,1.05,9.45c0,23.76-19.33,43.09-43.09,43.09c-14.87,0-28-7.57-35.74-19.05h16.07v0
		c8.72-0.1,18.01-5.46,18.01-17.1V60.05H71.74v30.71c0,3.33-1.58,5.01-4.69,5.01c-0.98,0-1.67-0.15-2.29-0.45
		c0.01-0.1,0.03-0.19,0.03-0.3c0-1.42-1.15-2.57-2.57-2.57c-1.42,0-2.57,1.15-2.57,2.57c0,1.42,1.15,2.57,2.57,2.57
		c0.41,0,0.79-0.1,1.13-0.27c0.95,0.54,2.1,0.88,3.7,0.88c4.46,0,7.13-2.78,7.13-7.45V62.48h8.69v28.53
		c0,7.3-4.89,14.67-15.82,14.67H49.69h-1.36c0,0-0.01,1.61-0.01,2.44c8.05,12.89,22.36,21.48,38.64,21.48
		c25.1,0,45.53-20.42,45.53-45.53C132.49,80.57,132.09,77.15,131.33,73.87z"/>
</g>
<g id="Layer_2">
</g>
<g id="Animation">
</g>
</svg>
